# xmcd
#
# Track frame offsets: 
#        182
#        20862
#        39595
#        58702
#        78620
#        101180
#        116162
#        135887
#        177097
#        203702
#        219452
#
# Disc length: 3310 seconds
#
# Revision: 1
# Processed by: cddbd v1.5.2PL0 Copyright (c) Steve Scherf et al.
# Submitted via: ExactAudioCopy v0.99pb1
#
DISCID=9c0cec0b
DTITLE=Albert King - A Truckload of Lovin' [CD 1)
DYEAR=1999
DGENRE=Blues
TTITLE0=Truckload Of Lovin'
TTITLE1=Cold Women With Warm Hearts
TTITLE2=Gonna Make It Somehow
TTITLE3=Cadillac Assmbly Line
TTITLE4=Nobody Wants A Loser
TTITLE5=We All Wanna Boogie
TTITLE6=The Very Thought Of You
TTITLE7=I Got The Blues
TTITLE8=Angel Of Mercy
TTITLE9=Born Under A Bad Sign
TTITLE10=I Worked Hard
EXTD=
EXTT0=
EXTT1=
EXTT2=
EXTT3=
EXTT4=
EXTT5=
EXTT6=
EXTT7=
EXTT8=
EXTT9=
EXTT10=
PLAYORDER=
